<svg data-v-423bf9ae="" xmlns="http://www.w3.org/2000/svg" viewBox="0 0 648 90" class="iconLeft"><!----><defs data-v-423bf9ae=""><linearGradient data-v-423bf9ae="" gradientTransform="rotate(25)" id="ee490c9b-17f9-49dc-94dc-474b05ce61a3" x1="0%" y1="0%" x2="100%" y2="0%"><stop data-v-423bf9ae="" offset="0%" style="stop-color: rgb(79, 126, 72); stop-opacity: 1;"></stop><stop data-v-423bf9ae="" offset="100%" style="stop-color: rgb(202, 230, 165); stop-opacity: 1;"></stop></linearGradient></defs><!----><g data-v-423bf9ae="" id="250013eb-2f73-4ff6-b6cf-f1aa03ef0924" fill="#ffffff" transform="matrix(6.054490506946714,0,0,6.054490506946714,94.44856017996892,4.828457213078728)"><path d="M6.97 6.75C7.63 6.45 8.22 5.85 8.22 4.66C8.22 3.54 7.48 2.21 5.29 2.21L1.13 2.21L1.13 11.48L5.53 11.48C7.64 11.48 8.69 10.43 8.69 9.04C8.69 7.66 7.76 7 6.97 6.75ZM2.18 3.21L5.40 3.21C6.68 3.21 7.17 3.98 7.17 4.75C7.17 5.88 6.26 6.36 5.29 6.36L2.18 6.36ZM5.64 10.49L2.18 10.49L2.18 7.31L5.53 7.31C7 7.31 7.64 8.09 7.64 8.96C7.64 9.93 6.92 10.49 5.64 10.49ZM18.20 2.21L14.94 6.61L11.62 2.21L10.40 2.21L10.40 11.48L11.45 11.48L11.45 3.81L14.94 8.22L18.37 3.81L18.37 11.48L19.42 11.48L19.42 2.21ZM22.74 2.21L21.69 2.21L21.69 11.48L22.74 11.48ZM31.96 10.57C29.71 10.57 28.45 8.93 28.45 6.85C28.45 4.76 29.71 3.12 31.96 3.12C33.49 3.12 34.50 3.85 34.97 4.98L36.08 4.98C35.49 3.29 33.98 2.10 31.88 2.10C29.09 2.10 27.40 4.21 27.40 6.85C27.40 9.48 29.09 11.59 31.88 11.59C33.98 11.59 35.49 10.40 36.08 8.71L34.97 8.71C34.50 9.84 33.49 10.57 31.96 10.57ZM40.38 4.37C38.33 4.37 36.99 5.98 36.99 7.98C36.99 9.98 38.33 11.59 40.38 11.59C41.54 11.59 42.36 11.12 42.88 10.36L42.88 11.48L43.93 11.48L43.93 4.48L42.88 4.48L42.88 5.61C42.36 4.86 41.54 4.37 40.38 4.37ZM40.52 10.64C38.96 10.64 38.04 9.42 38.04 7.98C38.04 6.54 38.96 5.32 40.52 5.32C42.07 5.32 42.94 6.54 42.94 7.98C42.94 9.42 42.07 10.64 40.52 10.64ZM46.80 1.68L45.75 1.68L45.75 11.48L46.80 11.48ZM51.77 10.64C50.22 10.64 49.24 9.42 49.24 7.98C49.24 6.54 50.22 5.32 51.77 5.32C52.77 5.32 53.48 5.88 53.80 6.68L54.94 6.68C54.53 5.32 53.28 4.37 51.63 4.37C49.53 4.37 48.19 5.98 48.19 7.98C48.19 9.98 49.53 11.59 51.63 11.59C53.28 11.59 54.53 10.64 54.94 9.28L53.80 9.28C53.48 10.08 52.77 10.64 51.77 10.64ZM62.34 11.48L62.34 4.48L61.29 4.48L61.29 8.51C61.29 9.77 60.34 10.64 59.18 10.64C58.03 10.64 57.22 9.80 57.22 8.53L57.22 4.48L56.17 4.48L56.17 8.55C56.17 10.54 57.53 11.59 58.97 11.59C60.10 11.59 60.79 11.06 61.29 10.39L61.29 11.48ZM65.21 1.68L64.16 1.68L64.16 11.48L65.21 11.48ZM69.99 4.37C67.94 4.37 66.60 5.98 66.60 7.98C66.60 9.98 67.94 11.59 69.99 11.59C71.15 11.59 71.97 11.12 72.49 10.36L72.49 11.48L73.54 11.48L73.54 4.48L72.49 4.48L72.49 5.61C71.97 4.86 71.15 4.37 69.99 4.37ZM70.13 10.64C68.57 10.64 67.65 9.42 67.65 7.98C67.65 6.54 68.57 5.32 70.13 5.32C71.68 5.32 72.55 6.54 72.55 7.98C72.55 9.42 71.68 10.64 70.13 10.64ZM77.17 11.48L77.17 5.40L78.78 5.40L78.78 4.48L77.17 4.48L77.17 1.97L76.12 1.97L76.12 4.48L74.69 4.48L74.69 5.40L76.12 5.40L76.12 11.48ZM82.82 4.37C80.68 4.37 79.35 5.98 79.35 7.98C79.35 9.98 80.68 11.59 82.82 11.59C84.97 11.59 86.30 9.98 86.30 7.98C86.30 5.98 84.97 4.37 82.82 4.37ZM82.82 10.64C81.27 10.64 80.40 9.42 80.40 7.98C80.40 6.54 81.27 5.32 82.82 5.32C84.38 5.32 85.25 6.54 85.25 7.98C85.25 9.42 84.38 10.64 82.82 10.64ZM91.31 4.37C89.57 4.37 88.87 5.73 88.73 6.20L88.73 4.48L87.68 4.48L87.68 11.48L88.73 11.48L88.73 8.40C88.73 6.86 89.68 5.42 91.25 5.42L91.38 5.42L91.38 4.37Z"></path></g><!----><g data-v-423bf9ae="" id="a087cbea-2077-4075-a5d9-2a2ab0186b68" transform="matrix(1.4516095093043324,0,0,1.4516095093043324,-5.451509727517369,-1.4516095093043262)" stroke="none" fill="#ffffff"><path d="M28 22c0 2.206 1.794 4 4 4s4-1.794 4-4-1.794-4-4-4c-.052 0-.1.013-.151.015l-.99-3.301a1.001 1.001 0 0 0-1.916.576l.991 3.303A3.987 3.987 0 0 0 28 22zm6 0c0 1.103-.897 2-2 2s-2-.897-2-2 .897-2 2-2 2 .897 2 2z"></path><path d="M59.332 43.943A1 1 0 0 0 60 43V33a1 1 0 0 0-1.332-.943l-.668.235V22c0-2.757-2.243-5-5-5h-4.051C48.427 8.092 41.036 1 32 1S15.573 8.092 15.051 17H11c-2.757 0-5 2.243-5 5v24.089l-.908-.084A1 1 0 0 0 4 47v10a1 1 0 0 0 .908.996l1.102.102C6.063 60.808 8.277 63 11 63h42c.422 0 .842-.053 1.249-.157a.966.966 0 0 0 .417-.24l4.242.393A1.001 1.001 0 0 0 60 62V52a1 1 0 0 0-.908-.996L58 50.903v-6.491l1.332-.469zM58 42.292l-19.227 6.765c-.037.013-.062.041-.096.057l-11.376-1.053A.971.971 0 0 0 27 48c-.04 0-.073.018-.112.023l-5.994-.555L31 43.912V46a1 1 0 1 0 2 0v-2.792l3-1.056V43a1 1 0 1 0 2 0v-1.551l3-1.056V43a1 1 0 1 0 2 0v-3.31l3-1.056V40a1 1 0 1 0 2 0v-2c0-.023-.012-.042-.013-.065L51 36.875V40a1 1 0 1 0 2 0v-3.829l5-1.759v7.88zm-14.605 7.259L52 46.523v3.825l-8.605-.797zM32 3c7.934 0 14.431 6.195 14.949 14h-2a12.957 12.957 0 0 0-3.735-8.159c-.009-.01-.012-.024-.022-.034-.01-.01-.023-.013-.034-.022C38.807 6.448 35.57 5 32 5s-6.807 1.448-9.159 3.785c-.01.009-.024.012-.034.022-.01.01-.013.023-.022.034A12.96 12.96 0 0 0 19.05 17h-2C17.569 9.195 24.066 3 32 3zM8 22c0-1.654 1.346-3 3-3h12a1 1 0 1 0 0-2h-1.949a10.954 10.954 0 0 1 2.501-6.034l1.377 1.377a.997.997 0 0 0 1.414 0 .999.999 0 0 0 0-1.414l-1.377-1.377A10.946 10.946 0 0 1 31 7.051V9a1 1 0 1 0 2 0V7.051a10.947 10.947 0 0 1 6.034 2.502l-1.377 1.377a.999.999 0 1 0 1.414 1.414l1.377-1.377a10.943 10.943 0 0 1 2.501 6.034H41a1 1 0 1 0 0 2h12c1.654 0 3 1.346 3 3v10.995l-2 .704V32a1 1 0 1 0-2 0v2c0 .133.029.26.076.376L17.668 46.482a.984.984 0 0 0-.601.631L12 46.644V23h7.5c1.379 0 2.5 1.122 2.5 2.5 0 2.481 2.019 4.5 4.5 4.5h11c2.481 0 4.5-2.019 4.5-4.5 0-1.378 1.121-2.5 2.5-2.5H52v5a1 1 0 1 0 2 0v-6a1 1 0 0 0-1-1h-8.5a4.505 4.505 0 0 0-4.5 4.5c0 1.378-1.121 2.5-2.5 2.5h-11a2.503 2.503 0 0 1-2.5-2.5c0-2.481-2.019-4.5-4.5-4.5H11a1 1 0 0 0-1 1v24.459l-2-.185V22zm3 39c-1.557 0-2.825-1.196-2.971-2.715L37.356 61H11zm47-.097L6 56.088v-7.992l5 .463V52a1 1 0 1 0 2 0v-3.255l3 .278V51a1 1 0 1 0 2 0v-1.792l3 .278V53a1 1 0 1 0 2 0v-3.329l3 .278V52a1 1 0 1 0 2 0v-1.866l3 .278V54a1 1 0 1 0 2 0v-3.403l3 .278V53a1 1 0 1 0 2 0v-1.94l3 .278V55a1 1 0 1 0 2 0v-3.477l3 .278V54a1 1 0 1 0 2 0v-2.014l3 .278V56a1 1 0 1 0 2 0v-3.551l5 .463v7.991zm-2-10.185l-2-.185V46c0-.06-.024-.112-.034-.169L56 45.116v5.602z"></path></g><!----></svg>