<svg data-v-423bf9ae="" xmlns="http://www.w3.org/2000/svg" viewBox="0 0 546.417768251941 60" class="font"><!----><!----><!----><g data-v-423bf9ae="" id="8862e564-224d-4869-8123-56923e9c31d4" fill="white" transform="matrix(6.054490506946714,0,0,6.054490506946714,-6.841570435265453,-10.171544694269905)"><path d="M6.97 6.75C7.63 6.45 8.22 5.85 8.22 4.66C8.22 3.54 7.48 2.21 5.29 2.21L1.13 2.21L1.13 11.48L5.53 11.48C7.64 11.48 8.69 10.43 8.69 9.04C8.69 7.66 7.76 7 6.97 6.75ZM2.18 3.21L5.40 3.21C6.68 3.21 7.17 3.98 7.17 4.75C7.17 5.88 6.26 6.36 5.29 6.36L2.18 6.36ZM5.64 10.49L2.18 10.49L2.18 7.31L5.53 7.31C7 7.31 7.64 8.09 7.64 8.96C7.64 9.93 6.92 10.49 5.64 10.49ZM18.20 2.21L14.94 6.61L11.62 2.21L10.40 2.21L10.40 11.48L11.45 11.48L11.45 3.81L14.94 8.22L18.37 3.81L18.37 11.48L19.42 11.48L19.42 2.21ZM22.74 2.21L21.69 2.21L21.69 11.48L22.74 11.48ZM31.96 10.57C29.71 10.57 28.45 8.93 28.45 6.85C28.45 4.76 29.71 3.12 31.96 3.12C33.49 3.12 34.50 3.85 34.97 4.98L36.08 4.98C35.49 3.29 33.98 2.10 31.88 2.10C29.09 2.10 27.40 4.21 27.40 6.85C27.40 9.48 29.09 11.59 31.88 11.59C33.98 11.59 35.49 10.40 36.08 8.71L34.97 8.71C34.50 9.84 33.49 10.57 31.96 10.57ZM40.38 4.37C38.33 4.37 36.99 5.98 36.99 7.98C36.99 9.98 38.33 11.59 40.38 11.59C41.54 11.59 42.36 11.12 42.88 10.36L42.88 11.48L43.93 11.48L43.93 4.48L42.88 4.48L42.88 5.61C42.36 4.86 41.54 4.37 40.38 4.37ZM40.52 10.64C38.96 10.64 38.04 9.42 38.04 7.98C38.04 6.54 38.96 5.32 40.52 5.32C42.07 5.32 42.94 6.54 42.94 7.98C42.94 9.42 42.07 10.64 40.52 10.64ZM46.80 1.68L45.75 1.68L45.75 11.48L46.80 11.48ZM51.77 10.64C50.22 10.64 49.24 9.42 49.24 7.98C49.24 6.54 50.22 5.32 51.77 5.32C52.77 5.32 53.48 5.88 53.80 6.68L54.94 6.68C54.53 5.32 53.28 4.37 51.63 4.37C49.53 4.37 48.19 5.98 48.19 7.98C48.19 9.98 49.53 11.59 51.63 11.59C53.28 11.59 54.53 10.64 54.94 9.28L53.80 9.28C53.48 10.08 52.77 10.64 51.77 10.64ZM62.34 11.48L62.34 4.48L61.29 4.48L61.29 8.51C61.29 9.77 60.34 10.64 59.18 10.64C58.03 10.64 57.22 9.80 57.22 8.53L57.22 4.48L56.17 4.48L56.17 8.55C56.17 10.54 57.53 11.59 58.97 11.59C60.10 11.59 60.79 11.06 61.29 10.39L61.29 11.48ZM65.21 1.68L64.16 1.68L64.16 11.48L65.21 11.48ZM69.99 4.37C67.94 4.37 66.60 5.98 66.60 7.98C66.60 9.98 67.94 11.59 69.99 11.59C71.15 11.59 71.97 11.12 72.49 10.36L72.49 11.48L73.54 11.48L73.54 4.48L72.49 4.48L72.49 5.61C71.97 4.86 71.15 4.37 69.99 4.37ZM70.13 10.64C68.57 10.64 67.65 9.42 67.65 7.98C67.65 6.54 68.57 5.32 70.13 5.32C71.68 5.32 72.55 6.54 72.55 7.98C72.55 9.42 71.68 10.64 70.13 10.64ZM77.17 11.48L77.17 5.40L78.78 5.40L78.78 4.48L77.17 4.48L77.17 1.97L76.12 1.97L76.12 4.48L74.69 4.48L74.69 5.40L76.12 5.40L76.12 11.48ZM82.82 4.37C80.68 4.37 79.35 5.98 79.35 7.98C79.35 9.98 80.68 11.59 82.82 11.59C84.97 11.59 86.30 9.98 86.30 7.98C86.30 5.98 84.97 4.37 82.82 4.37ZM82.82 10.64C81.27 10.64 80.40 9.42 80.40 7.98C80.40 6.54 81.27 5.32 82.82 5.32C84.38 5.32 85.25 6.54 85.25 7.98C85.25 9.42 84.38 10.64 82.82 10.64ZM91.31 4.37C89.57 4.37 88.87 5.73 88.73 6.20L88.73 4.48L87.68 4.48L87.68 11.48L88.73 11.48L88.73 8.40C88.73 6.86 89.68 5.42 91.25 5.42L91.38 5.42L91.38 4.37Z"></path></g><!----><!----></svg>